<svg data-v-423bf9ae="" xmlns="http://www.w3.org/2000/svg" viewBox="0 0 796 90" class="iconLeftSlogan"><!----><!----><!----><g data-v-423bf9ae="" id="a01ab9af-f06a-49b5-a1c8-f399929c1f89" fill="black" transform="matrix(5.660377154786554,0,0,5.660377154786554,102.3137575223929,-0.622641140925964)"><path d="M0.31 3.14L0.73 3.14C0.90 1.61 1.19 1.30 2.83 1.30L3.65 1.30L3.65 9.20C3.65 9.98 3.61 10.01 2.11 10.09L2.11 10.50L6.58 10.50L6.58 10.09C5.08 10.01 5.04 9.98 5.04 9.20L5.04 1.30L5.87 1.30C7.50 1.30 7.80 1.61 7.97 3.14L8.39 3.14L8.39 0.81L0.31 0.81ZM9.37 5.66C9.37 7.22 9.80 8.51 10.56 9.35C11.34 10.23 12.49 10.71 14.03 10.71C15.57 10.71 16.72 10.23 17.50 9.35C18.26 8.51 18.69 7.22 18.69 5.66C18.69 4.09 18.26 2.80 17.50 1.96C16.72 1.08 15.57 0.60 14.03 0.60C12.49 0.60 11.34 1.08 10.56 1.96C9.80 2.80 9.37 4.09 9.37 5.66ZM10.93 5.66C10.93 3.60 11.54 1.09 14.03 1.09C16.52 1.09 17.12 3.60 17.12 5.66C17.12 7.71 16.52 10.22 14.03 10.22C11.54 10.22 10.93 7.71 10.93 5.66ZM19.85 10.50L23.98 10.50L23.98 10.09C22.54 10.01 22.50 9.98 22.50 9.20L22.50 6.52L23.30 6.52C23.94 6.52 24.57 6.47 25.09 6.34C26.17 6.06 27.40 5.31 27.40 3.56C27.40 2.49 26.94 1.76 26.31 1.37C25.63 0.95 24.74 0.81 23.76 0.81L19.85 0.81L19.85 1.22C21.08 1.30 21.11 1.33 21.11 2.11L21.11 9.20C21.11 9.98 21.08 10.01 19.85 10.09ZM22.50 5.49L22.50 1.82C22.50 1.43 22.65 1.30 23.56 1.30C25.00 1.30 25.89 2.13 25.89 3.65C25.89 5.40 24.74 6.03 23.53 6.03C22.71 6.03 22.50 6.01 22.50 5.49ZM27.36 10.50L30.44 10.50L30.44 10.09L29.71 10.02C29.29 9.98 29.25 9.84 29.36 9.46C29.60 8.62 29.89 7.76 30.21 6.76L33.35 6.76L34.29 9.44C34.43 9.84 34.36 10.00 33.91 10.04L33.28 10.09L33.28 10.50L36.86 10.50L36.86 10.09C36.05 10.02 35.90 9.98 35.64 9.25L32.68 0.81L31.64 0.81L30.17 4.96C29.74 6.17 29.15 7.85 28.66 9.13C28.36 9.88 28.24 10.05 27.36 10.09ZM30.39 6.23C30.84 4.83 31.33 3.46 31.75 2.23L31.79 2.23L33.18 6.23ZM36.48 1.22C37.23 1.25 37.42 1.33 37.73 1.92C38.51 3.36 39.34 4.91 40.03 6.30C40.18 6.59 40.24 6.83 40.24 7.11L40.24 9.20C40.24 9.97 40.19 10.01 38.75 10.09L38.75 10.50L43.11 10.50L43.11 10.09C41.66 10.01 41.62 9.97 41.62 9.20L41.62 7.06C41.62 6.72 41.66 6.51 41.80 6.23C42.52 4.80 43.57 2.84 44.00 2.14C44.48 1.37 44.56 1.26 45.50 1.22L45.50 0.81L42.43 0.81L42.43 1.22L43.19 1.29C43.44 1.32 43.47 1.47 43.36 1.74C43.01 2.58 42.06 4.49 41.31 5.95L41.29 5.95C40.47 4.48 39.75 3.07 39.13 1.72C39.02 1.47 39.07 1.33 39.28 1.30L40.11 1.22L40.11 0.81L36.48 0.81ZM48.52 10.50L52.65 10.50L52.65 10.09C51.21 10.01 51.17 9.98 51.17 9.20L51.17 5.92L53.13 5.92C54.32 5.92 54.38 6.26 54.50 7.15L54.92 7.15L54.92 4.16L54.50 4.16C54.38 5.05 54.32 5.39 53.13 5.39L51.17 5.39L51.17 1.81C51.17 1.34 51.23 1.30 51.69 1.30L53.07 1.30C54.70 1.30 55.02 1.62 55.22 3.05L55.64 3.05L55.64 0.81L48.52 0.81L48.52 1.22C49.76 1.30 49.78 1.33 49.78 2.11L49.78 9.20C49.78 9.98 49.76 10.01 48.52 10.09ZM56.84 7.07C56.84 9.34 57.95 10.67 60.20 10.67C62.45 10.67 63.56 9.34 63.56 7.07C63.56 4.80 62.45 3.47 60.20 3.47C57.95 3.47 56.84 4.80 56.84 7.07ZM58.30 7.07C58.30 5.14 58.91 3.96 60.20 3.96C61.49 3.96 62.10 5.14 62.10 7.07C62.10 9.00 61.49 10.18 60.20 10.18C58.91 10.18 58.30 9.00 58.30 7.07ZM64.60 4.17L65.13 4.24C65.49 4.30 65.58 4.37 65.58 4.87L65.58 8.57C65.58 10.18 66.53 10.67 67.56 10.67C68.75 10.67 69.72 9.86 70.13 9.66L70.27 10.50L72.51 10.50L72.51 10.09C71.54 10.02 71.46 10.00 71.46 9.28L71.46 3.56L71.36 3.47L69.16 3.82L69.16 4.17L69.69 4.24C70.06 4.30 70.14 4.37 70.14 4.87L70.14 8.02C70.14 8.41 70.10 8.72 70.03 8.86C69.71 9.51 69.03 9.91 68.31 9.91C67.49 9.91 66.89 9.41 66.89 8.32L66.89 3.56L66.79 3.47L64.60 3.82ZM73.16 10.50L76.58 10.50L76.58 10.09C75.59 10.02 75.53 10.00 75.53 9.28L75.53 6.01C75.53 5.66 75.56 5.46 75.67 5.24C75.96 4.69 76.59 4.23 77.34 4.23C78.29 4.23 78.81 4.76 78.81 5.98L78.81 9.28C78.81 10.00 78.76 10.02 77.76 10.09L77.76 10.50L81.17 10.50L81.17 10.09C80.18 10.02 80.12 10.00 80.12 9.28L80.12 5.70C80.12 4.28 79.35 3.47 78.06 3.47C77.03 3.47 76.38 3.98 75.52 4.54L75.32 3.47L73.23 3.82L73.23 4.17L73.77 4.24C74.13 4.30 74.21 4.37 74.21 4.87L74.21 9.28C74.21 10.00 74.17 10.02 73.16 10.09ZM82.07 7.21C82.07 9.28 83.15 10.67 84.99 10.67C85.75 10.67 86.41 10.33 87.16 9.72L87.16 10.40L87.28 10.50L89.54 10.50L89.54 10.09C88.55 10.02 88.49 10.00 88.49 9.28L88.49 0.20L88.40 0.11L86.20 0.46L86.20 0.81L86.73 0.87C87.09 0.91 87.18 0.98 87.18 1.51L87.18 3.81C86.79 3.60 86.27 3.47 85.62 3.47C84.48 3.47 83.62 3.84 83.03 4.44C82.43 5.07 82.07 5.99 82.07 7.21ZM83.52 7.04C83.52 5.22 84.18 3.96 85.61 3.96C86.27 3.96 86.80 4.27 87.05 4.84C87.16 5.08 87.18 5.28 87.18 5.66L87.18 8.12C87.18 8.43 87.16 8.67 87.08 8.90C86.80 9.63 86.18 9.91 85.46 9.91C84.17 9.91 83.52 8.65 83.52 7.04ZM90.44 8.68C90.44 9.73 91.14 10.67 92.46 10.67C93.27 10.67 94.09 10.12 94.54 9.83C94.74 10.35 94.96 10.67 95.45 10.67C95.97 10.67 96.57 10.51 97.10 10.25L97.02 9.91C96.82 9.95 96.52 9.98 96.31 9.93C96.05 9.87 95.82 9.60 95.82 8.72L95.82 5.33C95.82 4.52 95.63 3.47 93.52 3.47C91.94 3.47 90.69 4.30 90.69 5.07C90.69 5.52 91.21 5.73 91.48 5.73C91.77 5.73 91.85 5.57 91.92 5.33C92.23 4.30 92.81 3.96 93.37 3.96C93.91 3.96 94.56 4.24 94.56 5.36L94.56 5.95C94.21 6.31 92.85 6.66 91.74 7.01C90.73 7.32 90.44 8.02 90.44 8.68ZM91.85 8.48C91.85 7.83 92.16 7.49 92.95 7.20C93.51 6.99 94.25 6.72 94.56 6.52L94.56 8.50C94.56 9.63 93.69 9.93 93.14 9.93C92.27 9.93 91.85 9.31 91.85 8.48ZM97.51 4.20L98.52 4.20L98.52 9.07C98.52 10.50 99.58 10.67 100.07 10.67C100.79 10.67 101.46 10.30 101.86 10.05L101.75 9.76C101.42 9.90 101.11 9.94 100.76 9.94C100.28 9.94 99.83 9.60 99.83 8.54L99.83 4.20L101.64 4.20L101.64 3.64L99.83 3.64L99.83 1.88L99.43 1.88L98.57 3.64L97.51 3.64ZM103.18 1.34C103.18 1.85 103.53 2.20 104.03 2.20C104.54 2.20 104.89 1.85 104.89 1.34C104.89 0.84 104.54 0.49 104.03 0.49C103.53 0.49 103.18 0.84 103.18 1.34ZM102.34 10.50L105.76 10.50L105.76 10.09C104.76 10.02 104.71 10.00 104.71 9.28L104.71 3.56L104.61 3.47L102.41 3.82L102.41 4.17L102.94 4.24C103.31 4.30 103.39 4.37 103.39 4.87L103.39 9.28C103.39 10.00 103.35 10.02 102.34 10.09ZM106.65 7.07C106.65 9.34 107.76 10.67 110.01 10.67C112.27 10.67 113.37 9.34 113.37 7.07C113.37 4.80 112.27 3.47 110.01 3.47C107.76 3.47 106.65 4.80 106.65 7.07ZM108.11 7.07C108.11 5.14 108.72 3.96 110.01 3.96C111.30 3.96 111.92 5.14 111.92 7.07C111.92 9.00 111.30 10.18 110.01 10.18C108.72 10.18 108.11 9.00 108.11 7.07ZM114.49 10.50L117.91 10.50L117.91 10.09C116.91 10.02 116.86 10.00 116.86 9.28L116.86 6.01C116.86 5.66 116.89 5.46 117.00 5.24C117.29 4.69 117.92 4.23 118.66 4.23C119.62 4.23 120.13 4.76 120.13 5.98L120.13 9.28C120.13 10.00 120.09 10.02 119.08 10.09L119.08 10.50L122.50 10.50L122.50 10.09C121.51 10.02 121.45 10.00 121.45 9.28L121.45 5.70C121.45 4.28 120.68 3.47 119.39 3.47C118.36 3.47 117.71 3.98 116.84 4.54L116.65 3.47L114.56 3.82L114.56 4.17L115.09 4.24C115.46 4.30 115.54 4.37 115.54 4.87L115.54 9.28C115.54 10.00 115.50 10.02 114.49 10.09Z"></path></g><!----><g data-v-423bf9ae="" id="8803f6bb-ebf9-4cc2-a288-bde48c6a5c2f" transform="matrix(1.3036299910221607,0,0,1.3036299910221607,-22.4255001905657,-19.700496743490845)" stroke="none" fill="black"><path d="M50.096 78.822l9.36-5.402.009 11.099 22.779-13.151V45.104l-9.564 5.513V39.708l-9.483-5.476 9.679-5.599-22.78-13.152-21.418 12.366v1.603l8.296 4.795-9.462 5.463v10.991l-9.756-5.639v26.278L40.503 84.47l.008-11.183 9.585 5.535zm8.067-32.28l-8.083 4.661-8.17-4.722 8.074-4.662 8.179 4.723zm11.791 8.796v8.871l-7.774 4.489-.008-8.875 7.782-4.485zm-18.518 7.495l.006-9.267 8.004-4.615v9.258l-8.01 4.624zm-2.721-9.269l-.006 9.37-8.188-4.726v-9.381l8.194 4.737zm-10.922 6.229l-.006 8.775-7.548-4.359v-8.783l7.554 4.367zm2.726 1.563l8.188 4.727-.006 8.786-8.188-4.729.006-8.784zm10.908 13.549l.007-8.923 8.013-4.626.008 8.914-8.028 4.635zm28.091-25.083v19.971l-17.33 10.006-.007-7.954 10.499-6.062V53.765l6.838-3.943zm-17.347 6.856V47.38l7.783-4.487v9.298l-7.783 4.487zm6.451-16.165l-7.73 4.457-8.137-4.699 7.718-4.464 8.149 4.706zM50.078 38.67l-7.655-4.425 7.672-4.43 7.651 4.418-7.668 4.437zM32.742 28.649l17.354-10.02 17.33 10.007-6.955 4.023-10.375-5.991L39.7 32.671l-6.958-4.022zm14.564 11.568l-8.121 4.689-7.608-4.397 8.122-4.689 7.607 4.397zm-17.067 2.668l7.555 4.368v9.391l-7.555-4.368v-9.391zm7.541 36.866l-17.297-9.986V49.786l7.03 4.064v11.934l10.273 5.933-.006 8.034z"></path></g><!----><g data-v-423bf9ae="" id="9e428abe-aac1-4b9e-86e5-81437d2615e5" fill="black" transform="matrix(1.7386117790734308,0,0,1.7386117790734308,102.60805279543513,50.124686206318486)"><path d="M0.84 6.97L0.84 5.88L7.73 5.88L7.73 6.97L4.87 6.97L4.87 15.68L3.70 15.68L3.70 6.97L0.84 6.97ZM16.59 15.68L16.59 5.88L17.77 5.88L17.77 10.22L21.94 10.22L21.94 5.88L23.11 5.88L23.11 15.68L21.94 15.68L21.94 11.31L17.77 11.31L17.77 15.68L16.59 15.68ZM32.45 15.68L32.45 5.88L38.39 5.88L38.39 6.97L33.63 6.97L33.63 10.22L38.30 10.22L38.30 11.31L33.63 11.31L33.63 14.59L38.47 14.59L38.47 15.68L32.45 15.68ZM63.60 15.68L63.60 5.88L69.62 5.88L69.62 6.97L64.78 6.97L64.78 10.22L69.54 10.22L69.54 11.31L64.78 11.31L64.78 15.68L63.60 15.68ZM78.76 5.88L79.94 5.88L79.94 12.38Q79.94 13.57 80.49 14.17Q81.05 14.78 82.12 14.78L82.12 14.78Q83.20 14.78 83.76 14.17Q84.31 13.57 84.31 12.38L84.31 12.38L84.31 5.88L85.48 5.88L85.48 12.38Q85.48 14.08 84.59 14.98Q83.69 15.88 82.12 15.88L82.12 15.88Q80.56 15.88 79.66 14.98Q78.76 14.08 78.76 12.38L78.76 12.38L78.76 5.88ZM94.25 6.97L94.25 5.88L101.14 5.88L101.14 6.97L98.28 6.97L98.28 15.68L97.10 15.68L97.10 6.97L94.25 6.97ZM109.90 5.88L111.08 5.88L111.08 12.38Q111.08 13.57 111.63 14.17Q112.18 14.78 113.26 14.78L113.26 14.78Q114.34 14.78 114.89 14.17Q115.44 13.57 115.44 12.38L115.44 12.38L115.44 5.88L116.62 5.88L116.62 12.38Q116.62 14.08 115.72 14.98Q114.83 15.88 113.26 15.88L113.26 15.88Q111.69 15.88 110.80 14.98Q109.90 14.08 109.90 12.38L109.90 12.38L109.90 5.88ZM131.89 12.15L131.89 15.68L130.72 15.68L130.72 12.40Q130.72 12.04 130.55 11.84Q130.38 11.65 129.96 11.65L129.96 11.65L126.91 11.65L126.91 15.68L125.73 15.68L125.73 5.88L129.23 5.88Q129.99 5.88 130.55 6.10Q131.11 6.31 131.48 6.68Q131.85 7.04 132.04 7.53Q132.23 8.01 132.23 8.54L132.23 8.54L132.23 8.96Q132.23 9.51 131.93 10.05Q131.63 10.60 131.00 10.89L131.00 10.89L131.00 11.06Q131.42 11.13 131.66 11.40Q131.89 11.66 131.89 12.15L131.89 12.15ZM126.91 6.97L126.91 10.56L129.09 10.56Q130.09 10.56 130.57 10.13Q131.05 9.70 131.05 8.88L131.05 8.88L131.05 8.62Q131.05 7.88 130.57 7.43Q130.09 6.97 129.09 6.97L129.09 6.97L126.91 6.97ZM141.43 15.68L141.43 5.88L147.36 5.88L147.36 6.97L142.60 6.97L142.60 10.22L147.28 10.22L147.28 11.31L142.60 11.31L142.60 14.59L147.45 14.59L147.45 15.68L141.43 15.68ZM172.09 11.87L172.09 9.69Q172.09 7.78 173.00 6.73Q173.91 5.68 175.53 5.68L175.53 5.68Q177.16 5.68 178.07 6.73Q178.98 7.78 178.98 9.69L178.98 9.69L178.98 11.87Q178.98 13.83 178.07 14.85Q177.16 15.88 175.53 15.88L175.53 15.88Q173.91 15.88 173.00 14.85Q172.09 13.83 172.09 11.87L172.09 11.87ZM175.53 14.78L175.53 14.78Q176.67 14.78 177.23 14.01Q177.80 13.23 177.80 11.79L177.80 11.79L177.80 9.77Q177.80 8.43 177.23 7.60Q176.67 6.78 175.53 6.78L175.53 6.78Q174.40 6.78 173.83 7.60Q173.26 8.43 173.26 9.77L173.26 9.77L173.26 11.79Q173.26 13.23 173.83 14.01Q174.40 14.78 175.53 14.78ZM188.15 15.68L188.15 5.88L194.17 5.88L194.17 6.97L189.32 6.97L189.32 10.22L194.08 10.22L194.08 11.31L189.32 11.31L189.32 15.68L188.15 15.68ZM226.37 5.88L225.37 15.68L223.23 15.68L222.32 6.38L222.15 6.38L221.24 15.68L219.10 15.68L218.11 5.88L219.17 5.88L220.11 15.18L220.28 15.18L221.16 5.88L223.31 5.88L224.20 15.18L224.36 15.18L225.30 5.88L226.37 5.88ZM234.84 15.68L234.84 5.88L240.77 5.88L240.77 6.97L236.01 6.97L236.01 10.22L240.69 10.22L240.69 11.31L236.01 11.31L236.01 14.59L240.86 14.59L240.86 15.68L234.84 15.68ZM249.89 15.68L249.89 14.59L250.73 14.59L250.73 6.97L249.89 6.97L249.89 5.88L253.85 5.88Q254.55 5.88 255.09 6.08Q255.63 6.27 256.00 6.61Q256.37 6.94 256.56 7.41Q256.75 7.88 256.75 8.43L256.75 8.43L256.75 8.60Q256.75 9.00 256.62 9.34Q256.49 9.67 256.27 9.94Q256.05 10.21 255.75 10.39Q255.44 10.58 255.09 10.68L255.09 10.68L255.09 10.85Q255.79 11.05 256.27 11.60Q256.75 12.15 256.75 12.95L256.75 12.95L256.75 13.12Q256.75 13.66 256.56 14.13Q256.37 14.60 256.00 14.95Q255.63 15.29 255.09 15.48Q254.55 15.68 253.85 15.68L253.85 15.68L249.89 15.68ZM251.90 11.31L251.90 14.59L253.76 14.59Q254.59 14.59 255.11 14.17Q255.63 13.76 255.63 13.03L255.63 13.03L255.63 12.95Q255.63 12.19 255.14 11.75Q254.65 11.31 253.81 11.31L253.81 11.31L251.90 11.31ZM251.90 6.97L251.90 10.22L253.81 10.22Q254.65 10.22 255.14 9.79Q255.63 9.35 255.63 8.60L255.63 8.60L255.63 8.51Q255.63 7.80 255.11 7.38Q254.59 6.97 253.76 6.97L253.76 6.97L251.90 6.97ZM284.86 10.81L283.54 10.81L283.54 9.18L286.73 7.14L286.73 6.97L281.19 6.97L281.19 5.88L287.74 5.88L287.74 7.67L284.55 9.72L284.55 9.88L285.11 9.88Q285.67 9.88 286.19 10.07Q286.71 10.25 287.11 10.60Q287.50 10.95 287.75 11.46Q287.99 11.97 287.99 12.64L287.99 12.64L287.99 12.89Q287.99 13.52 287.74 14.07Q287.49 14.62 287.04 15.02Q286.59 15.41 285.99 15.64Q285.38 15.88 284.66 15.88L284.66 15.88Q283.84 15.88 283.18 15.62Q282.52 15.37 282.06 14.93Q281.60 14.49 281.35 13.89Q281.11 13.30 281.11 12.63L281.11 12.63L281.11 11.87L282.28 11.87L282.28 12.54Q282.28 13.08 282.46 13.49Q282.63 13.90 282.95 14.19Q283.26 14.48 283.70 14.63Q284.13 14.78 284.63 14.78L284.63 14.78Q285.10 14.78 285.50 14.63Q285.89 14.48 286.19 14.20Q286.48 13.93 286.65 13.56Q286.82 13.19 286.82 12.77L286.82 12.77L286.82 12.68Q286.82 11.80 286.26 11.30Q285.70 10.81 284.86 10.81L284.86 10.81ZM299.10 14.90L299.10 14.90Q299.10 14.49 299.38 14.20Q299.67 13.92 300.08 13.92L300.08 13.92Q300.48 13.92 300.77 14.20Q301.06 14.49 301.06 14.90L301.06 14.90Q301.06 15.30 300.77 15.59Q300.48 15.88 300.08 15.88L300.08 15.88Q299.67 15.88 299.38 15.59Q299.10 15.30 299.10 14.90ZM312.20 11.87L312.20 9.69Q312.20 7.78 313.11 6.73Q314.02 5.68 315.64 5.68L315.64 5.68Q317.27 5.68 318.18 6.73Q319.09 7.78 319.09 9.69L319.09 9.69L319.09 11.87Q319.09 13.83 318.18 14.85Q317.27 15.88 315.64 15.88L315.64 15.88Q314.02 15.88 313.11 14.85Q312.20 13.83 312.20 11.87L312.20 11.87ZM315.64 14.81L315.64 14.81Q316.78 14.81 317.35 14.02Q317.91 13.23 317.91 11.79L317.91 11.79L317.91 9.77Q317.91 9.10 317.77 8.55Q317.63 7.99 317.35 7.59Q317.06 7.20 316.63 6.97Q316.20 6.75 315.64 6.75L315.64 6.75Q315.07 6.75 314.65 6.97Q314.23 7.20 313.94 7.59Q313.66 7.99 313.52 8.55Q313.38 9.10 313.38 9.77L313.38 9.77L313.38 11.79Q313.38 13.23 313.94 14.02Q314.51 14.81 315.64 14.81ZM314.75 10.78L314.75 10.78Q314.75 10.42 315.01 10.15Q315.28 9.88 315.64 9.88L315.64 9.88Q316.01 9.88 316.27 10.15Q316.54 10.42 316.54 10.78L316.54 10.78Q316.54 11.14 316.27 11.41Q316.01 11.68 315.64 11.68L315.64 11.68Q315.28 11.68 315.01 11.41Q314.75 11.14 314.75 10.78Z"></path></g></svg>